<?xml version="1.0" encoding="UTF-8" standalone="no"?>
<!-- Created with Inkscape (http://www.inkscape.org/) -->

<svg
   xmlns:dc="http://purl.org/dc/elements/1.1/"
   xmlns:cc="http://creativecommons.org/ns#"
   xmlns:rdf="http://www.w3.org/1999/02/22-rdf-syntax-ns#"
   xmlns:svg="http://www.w3.org/2000/svg"
   xmlns="http://www.w3.org/2000/svg"
   xmlns:xlink="http://www.w3.org/1999/xlink"
   xmlns:sodipodi="http://sodipodi.sourceforge.net/DTD/sodipodi-0.dtd"
   xmlns:inkscape="http://www.inkscape.org/namespaces/inkscape"
   id="svg2"
   version="1.1"
   inkscape:version="0.91 r13725"
   width="211.39728mm"
   height="299.02728mm"
   viewBox="0 0 749.04547 1059.5455"
   sodipodi:docname="forside.svg">
  <metadata
     id="metadata8">
    <rdf:RDF>
      <cc:Work
         rdf:about="">
        <dc:format>image/svg+xml</dc:format>
        <dc:type
           rdf:resource="http://purl.org/dc/dcmitype/StillImage" />
        <dc:title></dc:title>
      </cc:Work>
    </rdf:RDF>
  </metadata>
  <defs
     id="defs6" />
  <sodipodi:namedview
     pagecolor="#ffffff"
     bordercolor="#666666"
     borderopacity="1"
     objecttolerance="10"
     gridtolerance="10"
     guidetolerance="10"
     inkscape:pageopacity="0"
     inkscape:pageshadow="2"
     inkscape:window-width="1638"
     inkscape:window-height="1011"
     id="namedview4"
     showgrid="false"
     units="mm"
     showguides="false"
     inkscape:zoom="0.48821793"
     inkscape:cx="294.37431"
     inkscape:cy="573.65626"
     inkscape:window-x="1292"
     inkscape:window-y="0"
     inkscape:window-maximized="0"
     inkscape:current-layer="layer2" />
  <g
     inkscape:groupmode="layer"
     id="layer1"
     inkscape:label="vektor"
     style="display:inline;opacity:1">
    <path
       style="opacity:1;fill:#01577a;fill-opacity:1;stroke:none;stroke-width:0.99552041;stroke-linecap:round;stroke-linejoin:miter;stroke-miterlimit:4;stroke-dasharray:none;stroke-dashoffset:0;stroke-opacity:1"
       d="m 35.502404,35.481529 678.329716,0 0,248.397931 -624.175584,-0.13376 -0.11452,363.45986 624.290104,-0.0336 0,239.68092 -678.329716,0 z"
       id="rect4138"
       inkscape:connector-curvature="0"
       sodipodi:nodetypes="ccccccccc" />
    <rect
       style="opacity:1;fill:#000000;fill-opacity:1;stroke:none;stroke-width:1;stroke-linecap:round;stroke-linejoin:miter;stroke-miterlimit:4;stroke-dasharray:none;stroke-dashoffset:0;stroke-opacity:1"
       id="rect4145"
       width="546.28943"
       height="3.3825839"
       x="113.88076"
       y="587.95514" />
    <path
       style="fill:none;fill-rule:evenodd;stroke:#000000;stroke-width:1;stroke-linecap:butt;stroke-linejoin:miter;stroke-miterlimit:4;stroke-dasharray:3, 1;stroke-dashoffset:0;stroke-opacity:1"
       d="m 113.88076,378.23413 545.72564,0.28188"
       id="path4147"
       inkscape:connector-curvature="0"
       sodipodi:nodetypes="cc" />
  </g>
  <g
     inkscape:groupmode="layer"
     id="layer3"
     inkscape:label="tekst"
     style="display:inline;opacity:1">
    <g
       id="g4199"
       style="fill:#ffffff;fill-opacity:1">
      <path
         inkscape:connector-curvature="0"
         id="path4150"
         d="m 109.50391,92.044922 c -12.013401,0.169789 -21.606349,10.376928 -21.498051,22.703128 0.108299,12.3262 9.882073,22.35347 21.896481,22.29687 12.01442,-0.0566 21.69727,-10.1733 21.69727,-22.5 a 2.0002,2.0002 0 0 0 -0.01,-0.21094 2.0002,2.0002 0 0 0 0.006,-0.19726 c -0.21659,-12.3247 -10.0784,-22.261587 -22.09179,-22.091798 z m 0.0566,4 c 9.78169,-0.138248 17.85514,7.918468 18.03515,18.162108 a 2.0002,2.0002 0 0 0 0.01,0.16211 2.0002,2.0002 0 0 0 -0.006,0.17578 c 0,10.24538 -7.93431,18.45392 -17.7168,18.5 -9.78248,0.0461 -17.786938,-8.08709 -17.876951,-18.33203 -0.09001,-10.24494 7.772993,-18.52972 17.554691,-18.667968 z"
         style="color:#000000;font-style:normal;font-variant:normal;font-weight:normal;font-stretch:normal;font-size:medium;line-height:normal;font-family:sans-serif;text-indent:0;text-align:start;text-decoration:none;text-decoration-line:none;text-decoration-style:solid;text-decoration-color:#000000;letter-spacing:normal;word-spacing:normal;text-transform:none;direction:ltr;block-progression:tb;writing-mode:lr-tb;baseline-shift:baseline;text-anchor:start;white-space:normal;clip-rule:nonzero;display:inline;overflow:visible;visibility:visible;opacity:1;isolation:auto;mix-blend-mode:normal;color-interpolation:sRGB;color-interpolation-filters:linearRGB;solid-color:#000000;solid-opacity:1;fill:#ffffff;fill-opacity:1;fill-rule:nonzero;stroke:none;stroke-width:4;stroke-linecap:round;stroke-linejoin:miter;stroke-miterlimit:4;stroke-dasharray:none;stroke-dashoffset:0;stroke-opacity:1;color-rendering:auto;image-rendering:auto;shape-rendering:auto;text-rendering:auto;enable-background:accumulate" />
      <path
         inkscape:connector-curvature="0"
         id="path4152"
         d="m 139.71094,92.785156 -0.0332,43.347654 4,0.004 0.0137,-17.67578 10.89257,-0.0508 0.006,0 c 8.72716,-0.0844 14.20302,-6.4602 14.21875,-12.86328 0.0155,-6.329809 -5.21788,-12.864254 -14.36523,-12.755864 l -14.73242,-0.0059 z m 3.99609,4.001953 10.77149,0.0039 0.0117,0 c 7.33297,-0.08689 10.32878,4.497514 10.31836,8.746094 -0.0103,4.17529 -3.3993,8.80671 -10.25781,8.87305 l -10.85742,0.0527 0.0137,-17.675781 z"
         style="color:#000000;font-style:normal;font-variant:normal;font-weight:normal;font-stretch:normal;font-size:medium;line-height:normal;font-family:sans-serif;text-indent:0;text-align:start;text-decoration:none;text-decoration-line:none;text-decoration-style:solid;text-decoration-color:#000000;letter-spacing:normal;word-spacing:normal;text-transform:none;direction:ltr;block-progression:tb;writing-mode:lr-tb;baseline-shift:baseline;text-anchor:start;white-space:normal;clip-rule:nonzero;display:inline;overflow:visible;visibility:visible;opacity:1;isolation:auto;mix-blend-mode:normal;color-interpolation:sRGB;color-interpolation-filters:linearRGB;solid-color:#000000;solid-opacity:1;fill:#ffffff;fill-opacity:1;fill-rule:evenodd;stroke:none;stroke-width:4;stroke-linecap:butt;stroke-linejoin:miter;stroke-miterlimit:4;stroke-dasharray:none;stroke-dashoffset:0;stroke-opacity:1;color-rendering:auto;image-rendering:auto;shape-rendering:auto;text-rendering:auto;enable-background:accumulate" />
      <path
         inkscape:connector-curvature="0"
         id="path4154"
         d="m 176.26953,92.785156 -0.0332,43.347654 4,0.004 0.0137,-17.67578 10.89258,-0.0508 0.004,0 c 8.72716,-0.0844 14.20302,-6.4602 14.21875,-12.86328 C 205.38076,99.217071 200.14735,92.682626 191,92.791016 l -14.73047,-0.0059 z m 3.99609,4.001953 10.76954,0.0039 0.0117,0 c 7.33296,-0.08689 10.32877,4.497514 10.31835,8.746094 -0.0103,4.17529 -3.3993,8.80671 -10.25781,8.87305 l -10.85547,0.0527 0.0137,-17.675781 z"
         style="color:#000000;font-style:normal;font-variant:normal;font-weight:normal;font-stretch:normal;font-size:medium;line-height:normal;font-family:sans-serif;text-indent:0;text-align:start;text-decoration:none;text-decoration-line:none;text-decoration-style:solid;text-decoration-color:#000000;letter-spacing:normal;word-spacing:normal;text-transform:none;direction:ltr;block-progression:tb;writing-mode:lr-tb;baseline-shift:baseline;text-anchor:start;white-space:normal;clip-rule:nonzero;display:inline;overflow:visible;visibility:visible;opacity:1;isolation:auto;mix-blend-mode:normal;color-interpolation:sRGB;color-interpolation-filters:linearRGB;solid-color:#000000;solid-opacity:1;fill:#ffffff;fill-opacity:1;fill-rule:evenodd;stroke:none;stroke-width:4;stroke-linecap:butt;stroke-linejoin:miter;stroke-miterlimit:4;stroke-dasharray:none;stroke-dashoffset:0;stroke-opacity:1;color-rendering:auto;image-rendering:auto;shape-rendering:auto;text-rendering:auto;enable-background:accumulate" />
      <path
         sodipodi:nodetypes="ccsscccccccsscsccsccc"
         inkscape:connector-curvature="0"
         id="path4159"
         d="m 231.47656,92.042969 -0.0684,0.002 c -12.05859,0.174063 -21.69674,10.372101 -21.58789,22.703131 0.10885,12.33097 9.92772,22.35339 21.98828,22.29687 10.69864,-0.0502 13.79309,-3.61994 14.41016,-4.6914 l 0.26953,-0.46485 -0.0137,-16.72656 -14.95703,-0.006 0,4.00977 10.95117,0.004 0.01,11.37305 c -0.0975,0.17124 -1.59549,2.4515 -10.68946,2.49414 -9.83397,0.0461 -17.87058,-8.08874 -17.96094,-18.32422 -0.0902,-10.21447 7.77412,-18.477466 17.58008,-18.652346 4.41592,0.244327 7.34379,0.954987 9.10938,1.574219 1.77799,0.623583 4.73635,2.318951 4.73635,2.318951 l -0.0586,-4.473248 c 0,0 -1.18168,-0.867877 -3.35156,-1.628907 -2.16988,-0.761029 -5.49391,-1.547318 -10.29883,-1.804687 l -0.0684,-0.0039 z"
         style="color:#000000;font-style:normal;font-variant:normal;font-weight:normal;font-stretch:normal;font-size:medium;line-height:normal;font-family:sans-serif;text-indent:0;text-align:start;text-decoration:none;text-decoration-line:none;text-decoration-style:solid;text-decoration-color:#000000;letter-spacing:normal;word-spacing:normal;text-transform:none;direction:ltr;block-progression:tb;writing-mode:lr-tb;baseline-shift:baseline;text-anchor:start;white-space:normal;clip-rule:nonzero;display:inline;overflow:visible;visibility:visible;opacity:1;isolation:auto;mix-blend-mode:normal;color-interpolation:sRGB;color-interpolation-filters:linearRGB;solid-color:#000000;solid-opacity:1;fill:#ffffff;fill-opacity:1;fill-rule:nonzero;stroke:none;stroke-width:4.00899982;stroke-linecap:butt;stroke-linejoin:miter;stroke-miterlimit:4;stroke-dasharray:none;stroke-dashoffset:0;stroke-opacity:1;color-rendering:auto;image-rendering:auto;shape-rendering:auto;text-rendering:auto;enable-background:accumulate" />
      <path
         inkscape:connector-curvature="0"
         id="path4184"
         d="m 329.66016,92.53125 0.13281,21.4375 0.13672,22.25977 24.34375,0 0,-4.07618 -20.29297,0 -0.0996,-16.1582 17.69531,0 0,-4.07617 -17.71875,0 -0.0957,-15.287111 20.25586,0.111329 0.0215,-4.076172 -24.3789,-0.134766 z"
         style="color:#000000;font-style:normal;font-variant:normal;font-weight:normal;font-stretch:normal;font-size:medium;line-height:normal;font-family:sans-serif;text-indent:0;text-align:start;text-decoration:none;text-decoration-line:none;text-decoration-style:solid;text-decoration-color:#000000;letter-spacing:normal;word-spacing:normal;text-transform:none;direction:ltr;block-progression:tb;writing-mode:lr-tb;baseline-shift:baseline;text-anchor:start;white-space:normal;clip-rule:nonzero;display:inline;overflow:visible;visibility:visible;opacity:1;isolation:auto;mix-blend-mode:normal;color-interpolation:sRGB;color-interpolation-filters:linearRGB;solid-color:#000000;solid-opacity:1;fill:#ffffff;fill-opacity:1;fill-rule:evenodd;stroke:none;stroke-width:4.07619715;stroke-linecap:butt;stroke-linejoin:miter;stroke-miterlimit:4;stroke-dasharray:none;stroke-dashoffset:0;stroke-opacity:1;color-rendering:auto;image-rendering:auto;shape-rendering:auto;text-rendering:auto;enable-background:accumulate" />
      <path
         sodipodi:nodetypes="cccccccc"
         inkscape:connector-curvature="0"
         id="path4178"
         d="m 320.15957,93.063573 -14.32949,37.329007 -14.47598,-37.405764 -4.25888,0.0091 16.76493,43.003054 3.80312,0.0197 16.4591,-42.88419 z"
         style="color:#000000;font-style:normal;font-variant:normal;font-weight:normal;font-stretch:normal;font-size:medium;line-height:normal;font-family:sans-serif;text-indent:0;text-align:start;text-decoration:none;text-decoration-line:none;text-decoration-style:solid;text-decoration-color:#000000;letter-spacing:normal;word-spacing:normal;text-transform:none;direction:ltr;block-progression:tb;writing-mode:lr-tb;baseline-shift:baseline;text-anchor:start;white-space:normal;clip-rule:nonzero;display:inline;overflow:visible;visibility:visible;opacity:1;isolation:auto;mix-blend-mode:normal;color-interpolation:sRGB;color-interpolation-filters:linearRGB;solid-color:#000000;solid-opacity:1;fill:#ffffff;fill-opacity:1;fill-rule:evenodd;stroke:none;stroke-width:4;stroke-linecap:butt;stroke-linejoin:miter;stroke-miterlimit:4;stroke-dasharray:none;stroke-dashoffset:0;stroke-opacity:1;color-rendering:auto;image-rendering:auto;shape-rendering:auto;text-rendering:auto;enable-background:accumulate" />
      <path
         sodipodi:nodetypes="cccccccccccccc"
         inkscape:connector-curvature="0"
         id="path4169"
         d="m 269.3812,92.869413 -17.89008,43.130217 4.36573,0.006 5.08651,-12.60572 20.5332,-0.084 5.40203,12.78963 4.23532,-0.0241 -18.09238,-43.130263 z m 1.78087,6.036837 8.62695,20.41602 -17.17383,0.0723 8.54688,-20.48828 z"
         style="color:#000000;font-style:normal;font-variant:normal;font-weight:normal;font-stretch:normal;font-size:medium;line-height:normal;font-family:sans-serif;text-indent:0;text-align:start;text-decoration:none;text-decoration-line:none;text-decoration-style:solid;text-decoration-color:#000000;letter-spacing:normal;word-spacing:normal;text-transform:none;direction:ltr;block-progression:tb;writing-mode:lr-tb;baseline-shift:baseline;text-anchor:start;white-space:normal;clip-rule:nonzero;display:inline;overflow:visible;visibility:visible;opacity:1;isolation:auto;mix-blend-mode:normal;color-interpolation:sRGB;color-interpolation-filters:linearRGB;solid-color:#000000;solid-opacity:1;fill:#ffffff;fill-opacity:1;fill-rule:evenodd;stroke:none;stroke-width:4;stroke-linecap:butt;stroke-linejoin:miter;stroke-miterlimit:4;stroke-dasharray:none;stroke-dashoffset:0;stroke-opacity:1;color-rendering:auto;image-rendering:auto;shape-rendering:auto;text-rendering:auto;enable-background:accumulate" />
    </g>
  </g>
  <g
     inkscape:groupmode="layer"
     id="layer2"
     inkscape:label="raster"
     style="display:none">
    <image
       sodipodi:absref="/Users/bear/Dropbox/Skole/HiNe/IFT103 Agile/tex/gfx/forside.jpeg"
       xlink:href="forside.jpeg"
       y="0"
       x="0"
       id="image10"
       preserveAspectRatio="none"
       height="1059.5455"
       width="749.04547" />
  </g>
</svg>
